<svg width="15" height="15" viewBox="0 0 15 15" fill="none" xmlns="http://www.w3.org/2000/svg">
<path d="M14.5834 7.49984C14.5834 6.56963 14.4001 5.64859 14.0442 4.78911C13.6882 3.92981 13.1664 3.14884 12.5087 2.49118C11.8509 1.83334 11.0701 1.3116 10.2107 0.955709C9.35131 0.59964 8.43023 0.416504 7.50002 0.416504V1.83317C8.24417 1.83317 8.98104 1.97982 9.66856 2.26447C10.3561 2.54929 10.9808 2.96675 11.507 3.49298C12.0332 4.01904 12.4506 4.64385 12.7353 5.33126C13.0201 6.01884 13.1667 6.75571 13.1667 7.49984H14.5834Z" fill="black" fill-opacity="0.18"/>
<path d="M0.416687 6.08317V2.5415C0.416687 2.15033 0.733824 1.83317 1.12502 1.83317H4.66669C5.05788 1.83317 5.37502 2.15033 5.37502 2.5415V5.37484C5.37502 5.76601 5.05788 6.08317 4.66669 6.08317H3.25002C3.25002 9.21274 5.78708 11.7498 8.91669 11.7498V10.3332C8.91669 9.942 9.23382 9.62484 9.62502 9.62484H12.4584C12.8496 9.62484 13.1667 9.942 13.1667 10.3332V13.8748C13.1667 14.266 12.8496 14.5832 12.4584 14.5832H8.91669C4.22227 14.5832 0.416687 10.7776 0.416687 6.08317Z" fill="black" fill-opacity="0.18"/>
<path d="M11.4265 5.8734C11.6401 6.38909 11.75 6.94178 11.75 7.49984H10.475C10.475 7.10918 10.3981 6.72233 10.2486 6.36142C10.0991 6.00034 9.87992 5.67246 9.60366 5.39628C9.3274 5.11993 8.99946 4.90083 8.6385 4.75124C8.27757 4.60183 7.8907 4.52487 7.50002 4.52487V3.24984C8.05814 3.24984 8.61079 3.35982 9.12643 3.5734C9.64205 3.78697 10.1106 4.09998 10.5052 4.49461C10.8999 4.88924 11.2129 5.35772 11.4265 5.8734Z" fill="black" fill-opacity="0.18"/>
</svg>
