<svg width="17" height="17" viewBox="0 0 17 17" fill="none" xmlns="http://www.w3.org/2000/svg">
<path fill-rule="evenodd" clip-rule="evenodd" d="M11.5909 6.18182C11.5909 7.88888 10.2071 9.27273 8.5 9.27273C6.79294 9.27273 5.40909 7.88888 5.40909 6.18182C5.40909 4.47476 6.79294 3.09091 8.5 3.09091C10.2071 3.09091 11.5909 4.47476 11.5909 6.18182ZM10.0455 6.18182C10.0455 7.03535 9.35353 7.72727 8.5 7.72727C7.64647 7.72727 6.95455 7.03535 6.95455 6.18182C6.95455 5.32829 7.64647 4.63636 8.5 4.63636C9.35353 4.63636 10.0455 5.32829 10.0455 6.18182Z" fill="black" fill-opacity="0.18"/>
<path fill-rule="evenodd" clip-rule="evenodd" d="M8.5 0C3.80558 0 0 3.80558 0 8.5C0 13.1944 3.80558 17 8.5 17C13.1944 17 17 13.1944 17 8.5C17 3.80558 13.1944 0 8.5 0ZM1.54545 8.5C1.54545 10.1152 2.09606 11.6017 3.0198 12.7822C4.29053 11.1187 6.29484 10.0455 8.54982 10.0455C10.7756 10.0455 12.7571 11.091 14.03 12.7178C14.9237 11.5478 15.4545 10.0859 15.4545 8.5C15.4545 4.65911 12.3409 1.54545 8.5 1.54545C4.65911 1.54545 1.54545 4.65911 1.54545 8.5ZM8.5 15.4545C6.83846 15.4545 5.313 14.8719 4.11684 13.8997C5.09499 12.5037 6.71582 11.5909 8.54982 11.5909C10.3611 11.5909 11.9644 12.4811 12.9461 13.8479C11.7407 14.8511 10.1908 15.4545 8.5 15.4545Z" fill="black" fill-opacity="0.18"/>
</svg>
