<svg width="70" height="78" viewBox="0 0 70 78" fill="none" xmlns="http://www.w3.org/2000/svg">
<path d="M50.4738 27.5695C49.8975 26.0311 65.8092 11.8224 56.5317 0.308878C54.3608 -2.38208 46.9942 13.2003 36.5337 20.2549C30.7618 24.1462 17.333 32.4314 17.333 37.0116V66.6598C17.333 72.1674 38.6267 78 54.8071 78C60.7393 78 69.3322 40.8379 69.3322 34.936C69.3322 29.0081 51.0415 29.1121 50.4738 27.5695ZM12.9998 27.9811C10.1485 27.9811 0 29.7144 0 41.5139V62.5216C0 74.3124 10.1485 75.6124 12.9998 75.6124C15.8467 75.6124 8.66652 73.1337 8.66652 65.8192V38.2033C8.66652 30.5421 15.8467 27.9811 12.9998 27.9811Z" fill="black"/>
</svg>
